<svg width="24" height="24" viewBox="0 0 24 24" fill="none" xmlns="http://www.w3.org/2000/svg">
<g id="Like">
<g id="Group 48096946">
<path id="Vector" d="M22.0107 12.1967L20.914 18.4602C20.8326 18.9446 20.5615 19.3866 20.1496 19.7058C19.7379 20.025 19.2128 20.2005 18.6698 20.2H8.87933C8.49546 20.2 8.01855 19.9246 8.01855 19.5783V11.0371C8.04864 10.9453 8.09696 10.8593 8.16108 10.7831L11.3649 4.36283C11.41 4.25619 11.4898 4.1645 11.594 4.09974C11.698 4.03486 11.8214 4.00011 11.9479 4C12.7538 4.00253 13.5253 4.29509 14.0913 4.81275C14.6573 5.3303 14.9713 6.0302 14.9636 6.75745V9.80016H19.7392C19.8619 9.80522 19.9842 9.81891 20.1047 9.84134C20.7023 9.92785 21.2379 10.2238 21.5948 10.6649C21.9519 11.106 22.1012 11.6567 22.0107 12.1967Z" fill="white"/>
<path id="Vector_2" d="M4.93747 10.8212H1.78703C1.57853 10.8217 1.3788 10.8711 1.23127 10.9589C1.08392 11.0466 1.00078 11.1655 1.00006 11.2896V19.7256C0.997382 19.8509 1.0791 19.9715 1.22697 20.0607C1.37485 20.1499 1.57655 20.2 1.78699 20.2H4.93744C5.14611 20.2 5.34637 20.1506 5.49388 20.0628C5.64158 19.975 5.72437 19.8559 5.72437 19.7317V11.2894C5.72365 11.1653 5.64069 11.0464 5.49317 10.9587C5.34565 10.871 5.14592 10.8215 4.93741 10.821L4.93747 10.8212Z" fill="white"/>
</g>
</g>
</svg>
