<svg width="24" height="24" viewBox="0 0 24 24" fill="none" xmlns="http://www.w3.org/2000/svg">
<g id="Icon/Heart">
<g id="Iconly/Bold/Heart">
<g id="Heart">
<path id="Vector" d="M8.2798 2.50064C8.9098 2.5198 9.5198 2.6298 10.1108 2.8308H10.1698C10.2098 2.8498 10.2398 2.8708 10.2598 2.8898C10.4808 2.9608 10.6898 3.0408 10.8898 3.1508L11.2698 3.3208C11.4198 3.4008 11.5998 3.5498 11.6998 3.6108C11.7998 3.6698 11.9098 3.7308 11.9998 3.7998C13.1108 2.9508 14.4598 2.4908 15.8498 2.50064C16.4808 2.50064 17.1108 2.5898 17.7098 2.7908C21.4008 3.9908 22.7308 8.0408 21.6198 11.5808C20.9898 13.3898 19.9598 15.0408 18.6108 16.3898C16.6798 18.2598 14.5608 19.9198 12.2798 21.3498L12.0298 21.5008L11.7698 21.3398C9.4808 19.9198 7.3498 18.2598 5.4008 16.3798C4.0608 15.0308 3.0298 13.3898 2.3898 11.5808C1.2598 8.0408 2.5898 3.9908 6.3208 2.7698C6.6108 2.6698 6.9098 2.5998 7.2098 2.5608H7.3298C7.6108 2.5198 7.8898 2.50064 8.1698 2.50064H8.2798ZM17.1898 5.6608C16.7798 5.5198 16.3298 5.7408 16.1798 6.1608C16.0398 6.5808 16.2598 7.0408 16.6798 7.1898C17.3208 7.4298 17.7498 8.0608 17.7498 8.7598V8.7908C17.7308 9.0198 17.7998 9.2408 17.9398 9.4108C18.0798 9.5808 18.2898 9.6798 18.5098 9.7008C18.9198 9.6898 19.2698 9.3608 19.2998 8.9398V8.8208C19.3298 7.4198 18.4808 6.1508 17.1898 5.6608Z" fill="#999999"/>
</g>
</g>
</g>
</svg>
