<svg width="24" height="24" viewBox="0 0 24 24" fill="none" xmlns="http://www.w3.org/2000/svg">
<g id="Dislike">
<g id="Group">
<path id="Vector" d="M22.0107 12.0033L20.914 5.73984C20.8326 5.25542 20.5615 4.81344 20.1496 4.49421C19.7379 4.17497 19.2128 3.99954 18.6698 4.00001H8.87933C8.49546 4.00001 8.01855 4.27541 8.01855 4.62166V13.1629C8.04864 13.2547 8.09696 13.3407 8.16108 13.4169L11.3649 19.8372C11.41 19.9438 11.4898 20.0355 11.594 20.1003C11.698 20.1652 11.8214 20.1999 11.9479 20.2C12.7538 20.1975 13.5253 19.9049 14.0913 19.3873C14.6573 18.8697 14.9713 18.1698 14.9636 17.4426V14.3998H19.7392C19.8619 14.3948 19.9842 14.3811 20.1047 14.3587C20.7023 14.2722 21.2379 13.9762 21.5948 13.5351C21.9519 13.094 22.1012 12.5433 22.0107 12.0033Z" fill="white"/>
<path id="Vector_2" d="M4.93747 13.3788H1.78703C1.57853 13.3784 1.3788 13.3289 1.23127 13.2411C1.08392 13.1534 1.00078 13.0345 1.00006 12.9105V4.4744C0.997382 4.34916 1.0791 4.22849 1.22697 4.13931C1.37485 4.05014 1.57655 4.00002 1.78699 4.00002H4.93744C5.14611 4.00002 5.34637 4.04939 5.49388 4.13718C5.64158 4.22497 5.72437 4.34415 5.72437 4.46833V12.9106C5.72365 13.0347 5.64069 13.1536 5.49317 13.2413C5.34565 13.3291 5.14592 13.3785 4.93741 13.379L4.93747 13.3788Z" fill="white"/>
</g>
</g>
</svg>
