<svg width="24" height="24" viewBox="0 0 24 24" fill="none" xmlns="http://www.w3.org/2000/svg">
<g id="Icon/Heart">
<g id="Iconly/Bold/Heart">
<g id="Heart">
<path id="Vector" d="M8.27977 2.5007C8.90977 2.51986 9.51977 2.62986 10.1108 2.83086H10.1698C10.2098 2.84986 10.2398 2.87086 10.2598 2.88986C10.4808 2.96086 10.6898 3.04086 10.8898 3.15086L11.2698 3.32086C11.4198 3.40086 11.5998 3.54986 11.6998 3.61086C11.7998 3.66986 11.9098 3.73086 11.9998 3.79986C13.1108 2.95086 14.4598 2.49086 15.8498 2.5007C16.4808 2.5007 17.1108 2.58986 17.7098 2.79086C21.4008 3.99086 22.7308 8.04086 21.6198 11.5809C20.9898 13.3899 19.9598 15.0409 18.6108 16.3899C16.6798 18.2599 14.5608 19.9199 12.2798 21.3499L12.0298 21.5009L11.7698 21.3399C9.48077 19.9199 7.34977 18.2599 5.40077 16.3799C4.06077 15.0309 3.02977 13.3899 2.38977 11.5809C1.25977 8.04086 2.58977 3.99086 6.32077 2.76986C6.61077 2.66986 6.90977 2.59986 7.20977 2.56086H7.32977C7.61077 2.51986 7.88977 2.5007 8.16977 2.5007H8.27977ZM17.1898 5.66086C16.7798 5.51986 16.3298 5.74086 16.1798 6.16086C16.0398 6.58086 16.2598 7.04086 16.6798 7.18986C17.3208 7.42986 17.7498 8.06086 17.7498 8.75986V8.79086C17.7308 9.01986 17.7998 9.24086 17.9398 9.41086C18.0798 9.58086 18.2898 9.67986 18.5098 9.70086C18.9198 9.68986 19.2698 9.36086 19.2998 8.93986V8.82086C19.3298 7.41986 18.4808 6.15086 17.1898 5.66086Z" fill="white"/>
</g>
</g>
</g>
</svg>
